<svg width="18" height="18" viewBox="0 0 18 18" fill="none" xmlns="http://www.w3.org/2000/svg">
<path d="M18 9.20698C18 8.5952 17.9494 7.98012 17.8414 7.37827H9.18134V10.8439H14.1405C13.9347 11.9616 13.2736 12.9504 12.3053 13.5786V15.8273H15.264C17.0014 14.2599 18 11.9451 18 9.20698Z" fill="#4285F4"/>
<path d="M9.18134 18C11.6576 18 13.7459 17.203 15.2673 15.8273L12.3087 13.5787C11.4855 14.1276 10.4228 14.4385 9.18471 14.4385C6.78944 14.4385 4.75852 12.8544 4.02982 10.7249H0.976685V13.0429C2.5353 16.0821 5.70989 18 9.18134 18Z" fill="#34A853"/>
<path d="M4.02642 10.7248C3.64182 9.60712 3.64182 8.3968 4.02642 7.27907V4.96094H0.976664C-0.325555 7.50394 -0.325555 10.5 0.976664 13.0429L4.02642 10.7248Z" fill="#FBBC04"/>
<path d="M9.18134 3.56212C10.4903 3.54229 11.7554 4.02508 12.7034 4.91134L15.3247 2.34188C13.6649 0.814102 11.4619 -0.0258486 9.18134 0.000606477C5.70987 0.000606477 2.53531 1.9186 0.976685 4.96094L4.02644 7.27907C4.75177 5.14612 6.78606 3.56212 9.18134 3.56212Z" fill="#EA4335"/>
</svg>
